<svg id="svg" version="1.1" width="400" height="416.6666666666667" viewBox="0 0 400 416.6666666666667" xmlns="http://www.w3.org/2000/svg" xmlns:xlink="http://www.w3.org/1999/xlink" ><g id="svgg"><path id="path0" d="M206.354 96.180 C 206.249 96.285,228.177 118.382,255.082 145.285 L 304.002 194.200 309.467 194.332 C 312.472 194.405,315.535 194.351,316.272 194.213 L 317.613 193.961 317.410 160.281 C 317.298 141.756,317.111 119.899,316.994 111.710 L 316.781 96.819 301.890 96.605 C 279.633 96.286,206.573 95.960,206.354 96.180 M28.400 138.868 C 28.400 139.126,52.898 163.831,82.840 193.768 L 137.280 248.200 152.640 248.314 L 168.000 248.427 168.000 193.679 L 168.000 138.931 146.100 138.666 C 107.538 138.199,28.400 138.335,28.400 138.868 M204.295 277.463 C 204.567 277.573,232.827 305.629,267.095 339.810 L 329.400 401.956 329.696 374.278 C 329.859 359.055,330.089 340.307,330.206 332.615 L 330.421 318.629 309.706 297.915 L 288.991 277.200 246.396 277.232 C 222.968 277.249,204.023 277.353,204.295 277.463 " stroke="none" fill="#fce287" fill-rule="evenodd"></path><path id="path1" d="M371.395 110.400 C 371.395 148.350,371.443 163.875,371.500 144.900 C 371.557 125.925,371.557 94.875,371.500 75.900 C 371.443 56.925,371.395 72.450,371.395 110.400 M253.404 63.434 C 255.220 65.203,256.361 65.948,255.000 64.476 C 254.340 63.762,253.442 62.973,253.004 62.723 C 252.556 62.468,252.731 62.779,253.404 63.434 M256.800 66.868 C 257.802 67.845,258.310 68.025,257.818 67.229 C 257.673 66.995,257.160 66.599,256.678 66.349 C 255.883 65.936,255.894 65.985,256.800 66.868 M261.291 71.340 C 262.231 72.297,263.071 73.021,263.157 72.950 C 263.351 72.789,260.192 69.600,259.838 69.600 C 259.697 69.600,260.351 70.383,261.291 71.340 M265.726 75.771 C 266.201 76.305,266.667 76.667,266.760 76.574 C 266.975 76.358,265.577 74.800,265.168 74.800 C 264.999 74.800,265.250 75.237,265.726 75.771 M317.000 194.400 C 316.853 194.638,314.296 194.800,310.678 194.800 L 304.603 194.800 323.942 214.142 C 338.770 228.972,343.123 233.544,342.608 233.742 C 342.237 233.884,320.259 234.000,293.767 234.000 C 267.275 234.000,245.600 234.124,245.600 234.275 C 245.600 234.929,288.397 277.200,289.060 277.200 C 290.021 277.200,329.412 316.570,330.060 318.179 C 330.665 319.679,344.079 333.200,344.963 333.200 C 345.543 333.200,345.600 326.980,345.600 263.600 L 345.600 194.000 331.424 194.000 C 322.404 194.000,317.157 194.146,317.000 194.400 M204.000 347.400 L 204.000 416.400 273.600 416.400 L 343.200 416.400 274.100 347.400 C 236.095 309.450,204.775 278.400,204.500 278.400 C 204.102 278.400,204.000 292.467,204.000 347.400 M49.600 298.923 C 50.370 299.731,51.055 300.393,51.123 300.396 C 51.469 300.408,49.947 298.641,49.137 298.091 C 48.555 297.696,48.731 298.011,49.600 298.923 M53.600 302.892 C 53.600 302.953,54.140 303.513,54.801 304.136 C 55.461 304.759,55.896 304.994,55.767 304.659 C 55.572 304.151,53.600 302.543,53.600 302.892 M370.000 385.738 C 370.000 385.800,370.565 386.379,371.255 387.025 C 372.505 388.195,372.507 388.195,371.831 387.134 C 371.279 386.266,370.000 385.291,370.000 385.738 M376.000 391.723 C 376.770 392.531,377.455 393.193,377.523 393.196 C 377.869 393.208,376.347 391.441,375.537 390.891 C 374.955 390.496,375.131 390.811,376.000 391.723 M381.166 396.818 C 384.131 399.819,384.535 400.190,383.971 399.400 C 383.249 398.390,381.639 396.775,380.600 396.018 C 380.160 395.698,380.415 396.058,381.166 396.818 M385.200 400.919 C 385.200 400.994,385.650 401.447,386.200 401.925 C 386.750 402.403,387.200 402.637,387.200 402.443 C 387.200 402.250,386.750 401.797,386.200 401.437 C 385.650 401.076,385.200 400.843,385.200 400.919 M388.475 404.200 C 388.953 404.750,389.406 405.200,389.481 405.200 C 389.557 405.200,389.324 404.750,388.963 404.200 C 388.603 403.650,388.150 403.200,387.957 403.200 C 387.763 403.200,387.997 403.650,388.475 404.200 " stroke="none" fill="#f9a53c" fill-rule="evenodd"></path><path id="path2" d="M0.400 0.215 C 0.400 0.333,31.566 31.563,69.659 69.615 L 138.917 138.800 153.459 138.800 L 168.000 138.800 168.000 124.897 L 168.000 110.994 112.500 55.497 L 57.000 0.001 28.700 0.000 C 13.135 0.000,0.400 0.097,0.400 0.215 M167.501 19.500 C 167.556 30.225,167.649 43.860,167.707 49.800 C 167.766 55.740,167.855 46.965,167.907 30.300 C 167.958 13.635,167.865 -0.000,167.700 -0.000 C 167.535 -0.000,167.445 8.775,167.501 19.500 M302.095 96.700 L 316.790 96.810 316.900 111.505 L 317.010 126.200 317.105 111.300 L 317.200 96.400 302.300 96.495 L 287.400 96.590 302.095 96.700 M206.000 165.400 L 206.000 234.000 273.967 234.000 C 311.349 234.000,342.238 233.884,342.608 233.741 C 343.239 233.499,207.172 96.800,206.300 96.800 C 206.135 96.800,206.000 127.670,206.000 165.400 M0.000 248.451 C 0.000 249.088,167.283 415.996,167.677 415.752 C 167.855 415.643,168.000 377.973,168.000 332.042 L 168.000 248.531 145.500 248.266 C 106.200 247.803,0.000 247.938,0.000 248.451 M329.847 346.623 C 329.711 346.976,329.600 359.718,329.600 374.937 L 329.600 402.609 336.504 409.504 L 343.408 416.400 371.704 416.400 C 387.267 416.400,400.000 416.263,400.000 416.096 C 400.000 415.709,399.406 415.092,391.950 407.723 C 388.567 404.381,373.485 389.304,358.434 374.218 C 327.283 342.995,330.170 345.781,329.847 346.623 " stroke="none" fill="#fcc834" fill-rule="evenodd"></path><path id="path3" d="M112.283 55.282 C 142.689 85.689,167.682 110.451,167.823 110.310 C 167.964 110.169,167.927 85.337,167.740 55.127 L 167.400 0.200 112.200 0.099 L 57.000 -0.002 112.283 55.282 M304.262 194.500 C 304.364 194.665,307.216 194.800,310.600 194.800 C 313.984 194.800,316.836 194.665,316.938 194.500 C 317.040 194.335,314.188 194.200,310.600 194.200 C 307.012 194.200,304.160 194.335,304.262 194.500 M288.849 277.300 C 288.950 277.355,298.268 286.580,309.558 297.800 C 320.847 309.020,329.896 317.840,329.668 317.400 C 329.008 316.129,289.842 277.200,289.224 277.200 C 288.917 277.200,288.749 277.245,288.849 277.300 M203.800 278.000 C 203.936 278.220,204.260 278.400,204.520 278.400 C 204.780 278.400,208.459 281.863,212.696 286.096 C 216.933 290.329,220.400 293.682,220.400 293.546 C 220.400 292.988,204.739 277.600,204.171 277.600 C 203.831 277.600,203.664 277.780,203.800 278.000 M223.800 297.200 C 225.312 298.748,225.600 298.979,225.600 298.640 C 225.600 298.382,222.744 295.600,222.479 295.600 C 222.346 295.600,222.941 296.320,223.800 297.200 M229.762 303.142 C 230.609 304.095,230.800 304.182,230.800 303.614 C 230.800 303.402,230.395 303.016,229.900 302.756 C 229.005 302.286,229.004 302.288,229.762 303.142 M233.200 306.600 C 233.474 306.930,233.878 307.200,234.098 307.200 C 234.321 307.200,234.278 306.935,234.000 306.600 C 233.726 306.270,233.322 306.000,233.102 306.000 C 232.879 306.000,232.922 306.265,233.200 306.600 M235.793 309.193 C 236.648 310.069,237.432 310.701,237.535 310.598 C 237.740 310.394,234.902 307.600,234.490 307.600 C 234.351 307.600,234.937 308.317,235.793 309.193 M240.202 313.602 C 240.602 314.044,241.015 314.318,241.121 314.212 C 241.390 313.943,240.392 312.800,239.889 312.800 C 239.662 312.800,239.803 313.161,240.202 313.602 M245.400 318.800 C 245.798 319.240,246.192 319.600,246.276 319.600 C 246.360 319.600,246.235 319.240,246.000 318.800 C 245.765 318.360,245.370 318.000,245.124 318.000 C 244.878 318.000,245.002 318.360,245.400 318.800 M246.800 319.902 C 246.800 320.122,247.070 320.526,247.400 320.800 C 247.735 321.078,248.000 321.121,248.000 320.898 C 248.000 320.678,247.730 320.274,247.400 320.000 C 247.065 319.722,246.800 319.679,246.800 319.902 M250.400 323.800 C 250.674 324.130,251.078 324.400,251.298 324.400 C 251.521 324.400,251.478 324.135,251.200 323.800 C 250.926 323.470,250.522 323.200,250.302 323.200 C 250.079 323.200,250.122 323.465,250.400 323.800 M252.000 325.102 C 252.000 325.322,252.270 325.726,252.600 326.000 C 252.935 326.278,253.200 326.321,253.200 326.098 C 253.200 325.878,252.930 325.474,252.600 325.200 C 252.265 324.922,252.000 324.879,252.000 325.102 M264.426 337.788 C 266.699 340.091,268.638 341.895,268.736 341.797 C 268.973 341.560,261.129 333.600,260.659 333.600 C 260.458 333.600,262.152 335.484,264.426 337.788 M269.200 342.289 C 269.200 342.792,270.343 343.790,270.612 343.521 C 270.718 343.415,270.444 343.002,270.002 342.602 C 269.561 342.203,269.200 342.062,269.200 342.289 M271.200 344.600 C 271.474 344.930,271.878 345.200,272.098 345.200 C 272.321 345.200,272.278 344.935,272.000 344.600 C 271.726 344.270,271.322 344.000,271.102 344.000 C 270.879 344.000,270.922 344.265,271.200 344.600 M273.793 347.193 C 274.648 348.069,275.432 348.701,275.535 348.598 C 275.782 348.351,273.111 345.610,272.619 345.604 C 272.409 345.602,272.937 346.317,273.793 347.193 M276.000 349.048 C 276.000 349.546,292.722 366.211,292.972 365.961 C 293.083 365.851,289.309 361.919,284.587 357.224 C 279.864 352.529,276.000 348.850,276.000 349.048 M296.209 369.586 C 297.964 371.339,299.576 372.779,299.791 372.786 C 300.005 372.794,298.750 371.360,297.000 369.600 C 295.250 367.840,293.638 366.400,293.418 366.400 C 293.197 366.400,294.453 367.834,296.209 369.586 M303.262 376.556 C 305.098 378.401,306.680 379.836,306.779 379.744 C 307.013 379.524,300.724 373.200,300.272 373.200 C 300.081 373.200,301.427 374.710,303.262 376.556 M307.200 380.158 C 307.200 380.352,312.240 385.558,318.400 391.728 C 324.560 397.897,329.600 402.775,329.600 402.569 C 329.600 402.363,324.560 397.157,318.400 391.000 C 312.240 384.843,307.200 379.964,307.200 380.158 " stroke="none" fill="#fcbc74" fill-rule="evenodd"></path><path id="path4" d="M168.000 30.400 L 168.000 60.800 209.637 60.800 L 251.274 60.800 253.696 63.200 C 255.029 64.520,255.957 65.601,255.759 65.601 C 255.562 65.602,255.985 65.960,256.700 66.396 C 257.415 66.832,258.000 67.472,258.000 67.818 C 258.000 68.164,258.160 68.349,258.355 68.228 C 258.795 67.956,259.692 68.975,259.330 69.337 C 259.185 69.482,259.298 69.600,259.580 69.600 C 260.224 69.600,263.200 72.540,263.200 73.177 C 263.200 73.435,263.360 73.549,263.555 73.428 C 263.750 73.307,264.132 73.477,264.404 73.804 C 264.676 74.132,264.741 74.403,264.549 74.406 C 264.357 74.409,264.646 74.638,265.192 74.914 C 265.738 75.190,266.390 75.829,266.642 76.333 C 266.893 76.838,267.257 77.214,267.449 77.170 C 267.642 77.126,268.022 77.520,268.294 78.045 C 268.566 78.570,268.794 78.820,268.800 78.600 C 268.807 78.380,268.982 78.470,269.189 78.800 C 269.395 79.130,273.308 83.180,277.882 87.800 L 286.200 96.200 301.700 96.318 L 317.200 96.435 317.200 111.192 C 317.200 119.308,317.364 126.379,317.564 126.905 C 318.078 128.256,370.440 180.520,370.859 180.101 C 371.048 179.912,371.247 148.492,371.301 110.279 L 371.400 40.800 313.231 40.800 L 255.063 40.800 234.675 20.400 L 214.287 0.000 191.144 0.000 L 168.000 0.000 168.000 30.400 M16.155 16.500 C 18.057 18.363,18.938 18.913,17.419 17.290 C 16.549 16.360,15.702 15.600,15.537 15.600 C 15.372 15.600,15.650 16.005,16.155 16.500 M20.800 20.925 C 20.800 20.994,21.385 21.579,22.100 22.225 L 23.400 23.400 22.225 22.100 C 21.130 20.888,20.800 20.616,20.800 20.925 M216.100 234.300 C 221.545 234.363,230.455 234.363,235.900 234.300 C 241.345 234.237,236.890 234.185,226.000 234.185 C 215.110 234.185,210.655 234.237,216.100 234.300 M59.095 308.431 C 60.143 309.549,61.356 310.657,61.790 310.894 C 62.225 311.131,61.462 310.217,60.095 308.862 C 57.091 305.886,56.449 305.609,59.095 308.431 M64.228 313.500 C 67.732 317.070,70.000 319.223,70.000 318.979 C 70.000 318.656,62.937 311.600,62.614 311.600 C 62.476 311.600,63.202 312.455,64.228 313.500 M70.400 319.395 C 70.400 319.513,71.480 320.700,72.800 322.032 C 74.120 323.365,75.200 324.296,75.200 324.102 C 75.200 323.909,74.120 322.722,72.800 321.465 C 71.480 320.208,70.400 319.277,70.400 319.395 M75.600 324.573 C 75.600 324.731,80.202 329.448,85.826 335.053 C 91.451 340.659,95.872 344.920,95.651 344.523 C 95.154 343.629,75.600 324.173,75.600 324.573 M97.636 346.902 C 98.206 347.396,99.271 348.428,100.002 349.196 C 100.733 349.965,101.131 350.219,100.887 349.762 C 100.398 348.849,97.375 345.999,96.899 346.002 C 96.734 346.003,97.066 346.408,97.636 346.902 M104.351 353.552 C 105.715 354.898,106.931 356.000,107.054 356.000 C 107.431 356.000,103.450 351.961,102.636 351.519 C 102.216 351.290,102.988 352.205,104.351 353.552 M337.979 353.778 C 339.120 354.992,339.374 355.073,338.825 354.047 C 338.604 353.633,338.106 353.173,337.721 353.025 C 337.198 352.824,337.263 353.016,337.979 353.778 M120.094 369.346 C 127.268 376.526,133.269 382.400,133.431 382.400 C 133.846 382.400,108.769 357.257,107.826 356.727 C 107.400 356.488,112.921 362.167,120.094 369.346 M348.400 363.938 C 348.400 364.124,348.788 364.619,349.262 365.038 L 350.124 365.800 349.416 364.700 C 348.686 363.566,348.400 363.351,348.400 363.938 M356.995 372.726 C 362.860 378.662,364.592 380.296,363.149 378.527 C 362.245 377.419,352.207 367.446,351.373 366.826 C 350.948 366.511,353.478 369.166,356.995 372.726 M365.781 381.519 C 366.651 382.444,367.488 383.200,367.642 383.200 C 367.983 383.200,366.102 381.219,365.000 380.419 C 364.560 380.099,364.912 380.594,365.781 381.519 M141.605 390.855 C 146.015 395.285,149.701 398.833,149.795 398.738 C 149.991 398.542,134.236 382.800,133.844 382.800 C 133.703 382.800,137.196 386.425,141.605 390.855 M390.800 406.515 C 390.800 406.579,392.909 408.694,395.487 411.215 C 398.065 413.737,399.910 415.450,399.587 415.023 C 398.416 413.471,390.800 406.098,390.800 406.515 " stroke="none" fill="#fccc1c" fill-rule="evenodd"></path></g></svg>