<?xml version="1.0" encoding="UTF-8"?>
<svg xmlns="http://www.w3.org/2000/svg" xmlns:xlink="http://www.w3.org/1999/xlink" viewBox="0 0 26 26" version="1.1" width="100px" height="100px">
<g id="surface1">
<path style=" " d="M 14.40625 0 C 15.777344 3.308594 9.460938 5.335938 8.875 8.09375 C 8.339844 10.625 12.621094 13.59375 12.625 13.59375 C 11.976563 12.546875 11.496094 11.664063 10.84375 10.03125 C 9.742188 7.273438 17.574219 4.785156 14.40625 0 Z M 18.5625 4.59375 C 18.5625 4.59375 13.0625 4.949219 12.78125 8.625 C 12.65625 10.261719 14.234375 11.121094 14.28125 12.3125 C 14.316406 13.285156 13.3125 14.09375 13.3125 14.09375 C 13.3125 14.09375 15.101563 13.765625 15.65625 12.28125 C 16.269531 10.632813 14.472656 9.507813 14.65625 8.1875 C 14.832031 6.925781 18.5625 4.59375 18.5625 4.59375 Z M 19.90625 13.0625 C 19.328125 13.035156 18.675781 13.253906 18.09375 13.6875 C 19.234375 13.429688 20.21875 14.160156 20.21875 15 C 20.21875 16.882813 17.59375 18.65625 17.59375 18.65625 C 17.59375 18.65625 21.65625 18.191406 21.65625 15.09375 C 21.65625 13.816406 20.867188 13.109375 19.90625 13.0625 Z M 9.09375 13.09375 C 7.671875 13.144531 4.84375 13.382813 4.84375 14.5 C 4.84375 16.054688 11.460938 16.175781 16.1875 15.21875 C 16.1875 15.21875 17.445313 14.304688 17.78125 13.96875 C 14.683594 14.625 7.625 14.726563 7.625 14.15625 C 7.625 13.632813 9.90625 13.09375 9.90625 13.09375 C 9.90625 13.09375 9.566406 13.078125 9.09375 13.09375 Z M 8.6875 15.96875 C 7.910156 15.96875 6.75 16.585938 6.75 17.1875 C 6.75 18.398438 12.585938 19.328125 16.90625 17.5625 L 15.40625 16.625 C 12.476563 17.601563 7.089844 17.277344 8.6875 15.96875 Z M 9.40625 18.6875 C 8.34375 18.6875 7.65625 19.371094 7.65625 19.875 C 7.65625 21.425781 13.984375 21.578125 16.5 20 L 14.90625 18.9375 C 13.027344 19.761719 8.320313 19.882813 9.40625 18.6875 Z M 5.84375 20.09375 C 4.113281 20.058594 3 20.859375 3 21.53125 C 3 25.105469 20.75 24.933594 20.75 21.28125 C 20.75 20.675781 20.058594 20.386719 19.8125 20.25 C 21.261719 23.742188 5.3125 23.46875 5.3125 21.40625 C 5.3125 20.9375 6.476563 20.46875 7.5625 20.6875 L 6.625 20.15625 C 6.355469 20.113281 6.089844 20.097656 5.84375 20.09375 Z M 22.59375 22.5 C 19.898438 25.160156 13.058594 26.113281 6.1875 24.46875 C 13.058594 27.398438 22.5625 25.769531 22.59375 22.5 Z "/>
</g>
</svg>
