<?xml version="1.0" encoding="UTF-8" standalone="no"?>
<!-- Generator: Adobe Illustrator 14.0.0, SVG Export Plug-In . SVG Version: 6.00 Build 43363)  -->

<svg
   xmlns:dc="http://purl.org/dc/elements/1.1/"
   xmlns:cc="http://creativecommons.org/ns#"
   xmlns:rdf="http://www.w3.org/1999/02/22-rdf-syntax-ns#"
   xmlns:svg="http://www.w3.org/2000/svg"
   xmlns="http://www.w3.org/2000/svg"
   xmlns:sodipodi="http://sodipodi.sourceforge.net/DTD/sodipodi-0.dtd"
   xmlns:inkscape="http://www.inkscape.org/namespaces/inkscape"
   version="1.1"
   id="Layer_1"
   x="0px"
   y="0px"
   width="192.756"
   height="192.756"
   viewBox="0 0 192.756 192.756"
   enable-background="new 0 0 612 792"
   xml:space="preserve"
   sodipodi:docname="Pascal.svg"
   inkscape:version="0.92.3 (2405546, 2018-03-11)"><metadata
   id="metadata4032"><rdf:RDF><cc:Work
       rdf:about=""><dc:format>image/svg+xml</dc:format><dc:type
         rdf:resource="http://purl.org/dc/dcmitype/StillImage" /><dc:title></dc:title></cc:Work></rdf:RDF></metadata><defs
   id="defs4030" /><sodipodi:namedview
   pagecolor="#ffffff"
   bordercolor="#666666"
   borderopacity="1"
   objecttolerance="10"
   gridtolerance="10"
   guidetolerance="10"
   inkscape:pageopacity="0"
   inkscape:pageshadow="2"
   inkscape:window-width="1600"
   inkscape:window-height="837"
   id="namedview4028"
   showgrid="false"
   fit-margin-top="0"
   fit-margin-left="0"
   fit-margin-right="0"
   fit-margin-bottom="0"
   inkscape:zoom="1.1919192"
   inkscape:cx="442.90962"
   inkscape:cy="31.6298"
   inkscape:window-x="-8"
   inkscape:window-y="-8"
   inkscape:window-maximized="1"
   inkscape:current-layer="g4025" />
<g
   id="g4025"
   transform="translate(-209,-300)">
	
	<path
   d="m 248.295,382.964 h 15.331 c 0.775,-0.043 2.455,0.086 3.531,0.345 3.101,0.646 5.986,3.058 6.718,6.632 -0.043,2.411 -0.043,14.641 0,14.555 h 22.652 c 1.464,-0.043 2.583,-1.377 2.583,-2.584 0,-1.205 -1.206,-2.541 -2.282,-2.541 h -10.077 c -1.163,-0.043 -2.972,-0.645 -3.962,-0.99 -0.732,-0.301 -2.196,-1.334 -2.412,-1.852 -0.646,-1.55 -0.689,-4.177 -0.689,-4.909 0,-0.775 -0.129,-3.79 0.689,-4.953 1.292,-1.809 1.679,-2.11 3.531,-3.058 1.378,-0.646 2.326,-0.603 3.618,-0.646 h 16.924 v 5.9 h -16.494 c -0.646,0.517 -1.12,1.421 -1.12,2.153 0,0.732 0.043,1.809 1.12,2.369 h 9.776 c 0.731,0 3.488,0.646 4.78,1.292 1.12,0.56 2.067,1.679 2.756,2.756 0.732,1.205 0.732,3.574 0.732,4.35 0,0.732 -0.258,2.928 -0.732,4.264 -0.431,1.248 -4.005,3.789 -4.866,3.789 h -47.759 c -2.627,0.043 -4.953,-2.195 -5.771,-3.961 -0.345,-0.689 -0.345,-2.887 -0.345,-3.617 0.129,-4.996 3.488,-8.571 7.623,-8.571 h 12.359 c 0.216,-0.517 0.043,-1.507 -0.172,-2.239 -0.344,-1.163 -1.378,-2.541 -3.014,-2.541 h -15.03 v -5.943 z m 10.035,16.149 c -2.455,-0.043 -3.876,0.775 -4.393,2.971 -0.129,0.732 0.215,2.283 1.464,2.498 1.636,0.26 8.871,0 11.412,0 l -0.043,-5.469 z m 109.298,-16.149 h 6.805 v 17.743 c 0.043,0.732 0.689,1.248 0.99,2.066 0.259,0.689 1.12,0.861 1.378,1.293 0.561,0.086 1.594,0.387 2.326,0.43 h 14.125 v 5.34 h -17.699 c -4.005,0 -7.968,-4.047 -7.925,-7.578 z m -47.888,-0.043 h 34.926 c 1.766,0.215 4.65,1.12 5.685,1.895 0.861,0.603 1.637,1.378 2.024,1.809 0.474,0.689 1.033,1.292 1.292,2.67 v 20.542 H 342.35 c -1.594,0 -3.23,-1.076 -4.867,-2.842 -0.99,-1.119 -0.99,-4.049 -0.99,-4.779 0,-4.006 2.498,-8.528 7.364,-8.528 h 12.188 c 0.216,-0.258 0.129,-2.368 -0.173,-3.359 -0.258,-0.689 -1.766,-1.421 -2.54,-1.421 h -32.815 c -0.732,0 -1.766,0.517 -2.455,1.077 -2.842,2.239 -3.101,4.005 -3.101,6.417 0,3.402 1.507,6.805 4.048,7.795 h 12.489 c 0.215,0.344 0.215,1.033 0,5.641 h -13.351 c -0.774,0 -2.584,-0.473 -3.488,-0.818 -1.119,-0.516 -2.282,-1.033 -3.229,-2.023 -1.163,-1.162 -2.024,-2.584 -2.67,-4.135 -0.345,-0.775 -1.077,-2.885 -1.292,-3.875 v -4.565 c 0,-0.775 1.206,-4.436 2.196,-6.331 0.431,-0.818 1.766,-2.11 2.454,-2.67 0.991,-0.818 2.283,-1.593 3.316,-1.895 0,-0.002 2.842,-0.648 4.306,-0.605 z m 27.992,16.192 c -2.412,-0.043 -4.35,0.818 -4.35,2.799 0,1.207 1.206,2.842 3.144,2.842 h 9.345 v -5.641 z M 217.504,382.964 h 18.001 c 0.775,-0.043 1.551,0.302 1.938,0.302 0.818,0.258 1.334,0.431 2.885,1.12 0.56,0.215 1.723,0.861 2.067,1.163 0.388,0.388 0.947,1.034 1.335,1.464 0.517,0.517 1.12,1.809 1.421,3.316 v 5.039 c -0.043,1.206 -0.775,2.542 -1.507,3.833 -0.646,1.119 -4.522,3.746 -6.029,3.746 H 225.04 v 6.848 h -7.537 v -26.831 z m 7.494,5.684 v 9.217 h 9.043 c 0.732,0 2.455,-0.346 3.402,-1.336 0.861,-0.861 1.55,-2.67 1.55,-3.445 0,-2.584 -2.326,-4.479 -4.953,-4.436 z"
   id="path4023"
   inkscape:connector-curvature="0"
   style="clip-rule:evenodd;fill-rule:evenodd" />
</g>
</svg>