<?xml version="1.0" encoding="utf-8"?>
<!-- Generator: Adobe Illustrator 18.0.0, SVG Export Plug-In . SVG Version: 6.00 Build 0)  -->
<!DOCTYPE svg PUBLIC "-//W3C//DTD SVG 1.1//EN" "http://www.w3.org/Graphics/SVG/1.1/DTD/svg11.dtd">
<svg version="1.1" id="Layer_1" xmlns="http://www.w3.org/2000/svg" xmlns:xlink="http://www.w3.org/1999/xlink" x="0px" y="0px"
	 viewBox="0 0 64 64" enable-background="new 0 0 64 64" xml:space="preserve">
<g>
	<g>
		<g>
			<g>
				<polygon points="47,0 47,10 56,10 				"/>
			</g>
		</g>
	</g>
	<g>
		<g>
			<g>
				<path d="M22.7,45.5c-0.3-0.2-0.8-0.3-1.5-0.3h-1.6v2.9h1.6c0.3,0,0.5,0,0.7-0.1c0.2,0,0.4-0.1,0.6-0.2c0.2-0.1,0.3-0.2,0.4-0.4
					c0.1-0.2,0.2-0.4,0.2-0.7c0-0.3,0-0.5-0.1-0.7C23,45.8,22.9,45.6,22.7,45.5z"/>
			</g>
		</g>
		<g>
			<g>
				<path d="M44,45.5c-0.3-0.2-0.8-0.3-1.5-0.3h-1.6v2.9h1.6c0.3,0,0.5,0,0.7-0.1c0.2,0,0.4-0.1,0.6-0.2c0.2-0.1,0.3-0.2,0.4-0.4
					c0.1-0.2,0.2-0.4,0.2-0.7c0-0.3,0-0.5-0.1-0.7C44.2,45.8,44.1,45.6,44,45.5z"/>
			</g>
		</g>
		<g>
			<g>
				<path d="M43,14V0H10C8.9,0,8,0.9,8,2.1v59.9c0,1.1,0.9,2.1,2,2.1h43.7c1.1,0,2.3-0.9,2.3-2.1V14H43z M24.6,49.4
					c-0.7,0.6-1.8,0.9-3.2,0.9h-1.8V55H17V43h4.4c0.6,0,1.2,0.1,1.7,0.2s1,0.3,1.4,0.6c0.4,0.3,0.7,0.7,0.9,1.1
					c0.2,0.5,0.3,1,0.3,1.7C25.8,47.8,25.4,48.7,24.6,49.4z M26.1,31l-2.2,2L17,25.5l6.9-7.5l2.2,2L21,25.5L26.1,31z M36.4,55h-2.6
					v-5h-4.1v5h-2.6V43h2.6v4.6h4.1V43h2.6V55z M29.4,36.6l-2.8-1.1l8-20l2.8,1.1L29.4,36.6z M45.9,49.4c-0.7,0.6-1.8,0.9-3.2,0.9
					h-1.8V55h-2.6V43h4.4c0.6,0,1.2,0.1,1.7,0.2s1,0.3,1.4,0.6c0.4,0.3,0.7,0.7,0.9,1.1c0.2,0.5,0.3,1,0.3,1.7
					C47,47.8,46.6,48.7,45.9,49.4z M40.1,33l-2.2-2l5.1-5.5L37.9,20l2.2-2l6.9,7.5L40.1,33z"/>
			</g>
		</g>
	</g>
</g>
</svg>
