<?xml version="1.0" encoding="UTF-8" standalone="no"?>
<!-- Created with Inkscape (http://www.inkscape.org/) -->

<svg
   xmlns:dc="http://purl.org/dc/elements/1.1/"
   xmlns:cc="http://creativecommons.org/ns#"
   xmlns:rdf="http://www.w3.org/1999/02/22-rdf-syntax-ns#"
   xmlns:svg="http://www.w3.org/2000/svg"
   xmlns="http://www.w3.org/2000/svg"
   xmlns:sodipodi="http://sodipodi.sourceforge.net/DTD/sodipodi-0.dtd"
   xmlns:inkscape="http://www.inkscape.org/namespaces/inkscape"
   width="300"
   height="300"
   id="svg2309"
   sodipodi:version="0.32"
   inkscape:version="0.92.3 (2405546, 2018-03-11)"
   sodipodi:modified="true"
   version="1.0"
   sodipodi:docname="Tcl.svg">
  <defs
     id="defs2311" />
  <sodipodi:namedview
     id="base"
     pagecolor="#ffffff"
     bordercolor="#666666"
     borderopacity="1.0"
     gridtolerance="10000"
     guidetolerance="10"
     objecttolerance="10"
     inkscape:pageopacity="0.0"
     inkscape:pageshadow="2"
     inkscape:zoom="0.7"
     inkscape:cx="627.50139"
     inkscape:cy="356.03205"
     inkscape:document-units="px"
     inkscape:current-layer="g2244"
     inkscape:window-width="1600"
     inkscape:window-height="837"
     inkscape:window-x="-8"
     inkscape:window-y="-8"
     showgrid="false"
     inkscape:window-maximized="1" />
  <metadata
     id="metadata2314">
    <rdf:RDF>
      <cc:Work
         rdf:about="">
        <dc:format>image/svg+xml</dc:format>
        <dc:type
           rdf:resource="http://purl.org/dc/dcmitype/StillImage" />
        <dc:title></dc:title>
      </cc:Work>
    </rdf:RDF>
  </metadata>
  <g
     inkscape:label="Layer 1"
     inkscape:groupmode="layer"
     id="layer1"
     transform="translate(-311.79308,-330.42022)">
    <g
       style="display:inline;opacity:1"
       id="g2244"
       transform="translate(396.10284,347.84879)">
      <path
         id="path4426"
         d="m 445.52492,372.22514 c 0.3816,23.33209 -0.31077,46.41243 -20.5,68.34375 l -0.75,0.84375 h 1.125 l 8.25,0.125 c -13.4055,27.88641 -22.12748,55.6937 -41.40625,83.46875 l -0.6875,1 1.1875,-0.21875 10.1875,-1.9375 c -7.2169,18.31031 -19.55758,30.43279 -32.9375,34.5 -3.6826,-51.56863 22.05226,-97.08706 43.90625,-142.46875 0.0201,-0.0417 0.0424,-0.0833 0.0625,-0.125 l -0.8125,-0.5625 c -35.78567,40.01351 -51.9112,96.44881 -58,143 -12.12846,-6.84723 -16.17079,-15.9131 -20.28125,-28.25 l 8.46875,3.5625 0.875,0.375 -0.1875,-0.9375 c -6.43634,-28.61973 3.55648,-49.16246 13.25,-76.15625 l 6.96875,4.65625 0.8125,0.5625 -0.0312,-0.96875 c -0.546,-21.93119 14.22103,-43.94781 33.8125,-63.59375 l 2.71875,7.28125 0.375,0.96875 0.53125,-0.90625 5.96875,-9.9375 0.0312,-0.0625 c 9.85187,-13.56952 20.26746,-17.98682 37.0625,-22.5625 z"
         style="display:inline;fill:#c3b15f;fill-opacity:1;fill-rule:evenodd;stroke:none;stroke-width:1px;stroke-linecap:butt;stroke-linejoin:miter;stroke-opacity:1"
         transform="translate(-324.02492,-364.63139)"
         inkscape:connector-curvature="0" />
      <path
         sodipodi:nodetypes="ccccccccccccccccccccccc"
         id="path7600"
         d="M 121.54988,7.5808058 C 104.81215,12.147023 94.270242,16.613077 84.4375,30.15625 l -0.03125,0.0625 -5.96875,9.9375 -0.53125,0.90625 -0.375,-0.96875 L 74.8125,32.8125 C 55.22103,52.45844 40.454,74.47506 41,96.40625 L 41.03125,97.375 40.21875,96.8125 33.25,92.15625 C 23.55648,119.15004 13.56366,139.69277 20,168.3125 l 0.1875,0.9375 -0.875,-0.375 -8.375,-3.53125 c 0.02697,0.17148 0.06561,0.33046 0.09375,0.5 4.049096,12.05775 8.145705,20.97338 20.09375,27.71875 0.471616,-3.60569 0.997231,-7.28794 1.59375,-11 -14.59059,-34.16414 -1.92582,-59.2811 3.84375,-81.875 l 8.875,5.125 C 44.211577,84.657017 56.63174,61.842112 72.78125,41.9375 l 4.6875,8.25 C 89.477498,25.486664 98.97512,15.57175 121.54988,7.5808058 Z"
         style="display:inline;opacity:1;fill:#eff1cb;fill-opacity:1;fill-rule:evenodd;stroke:#eff1cb;stroke-width:1px;stroke-linecap:butt;stroke-linejoin:miter;stroke-opacity:1"
         inkscape:connector-curvature="0" />
      <path
         style="display:inline;fill:#000000;fill-opacity:1;fill-rule:evenodd;stroke:none;stroke-width:1px;stroke-linecap:butt;stroke-linejoin:miter;stroke-opacity:1"
         d="m 126.9375,-0.6875 -0.53125,0.09375 C 106.72165,2.83976 87.4508,10.07244 79,27.375 L 75.4375,21.15625 75.125,20.59375 74.65625,21.0625 C 64.96254,30.33838 54.55574,42.35306 46.875,54.15625 39.66528,65.23562 34.88327,76.07934 35.40625,84.375 l -5.03125,-6.28125 -0.5,-0.625 -0.34375,0.71875 c -6.12393,13.22899 -12.30431,29.50407 -16,44.4375 -3.504,14.15885 -4.75881,27.04706 -1.5,35.15625 L 3.75,152.96875 3.0625,152.5625 3,153.375 c -1.55911,23.61702 8.0382,34.89333 19.0625,45.78125 l -9.1875,2.28125 -1.84375,0.46875 1.84375,0.5 c 5.27453,1.42933 10.27523,3.0386 13.75,5.71875 3.47477,2.68015 5.47098,6.36582 4.875,12.25 v 0.0312 25.5 0.15625 l 0.09375,0.125 11.5,16.5 L 44,264 v -1.59375 -38.875 c 1.52181,-6.5439 3.30807,-11.04795 5.875,-14.03125 2.56693,-2.9833 5.90711,-4.51517 10.6875,-5.09375 l 1.71875,-0.21875 -1.5625,-0.71875 -6.0625,-2.875 c 14.45549,-8.70374 30.64505,-30.0393 34.90625,-50.3125 l 0.1875,-0.8125 -0.78125,0.21875 -7.5,2.03125 c 6.66299,-6.25626 13.37517,-18.65154 19.75,-33.09375 6.76105,-15.3172 13.07372,-32.66468 18.25,-46.53125 l 0.28125,-0.75 -0.78125,0.0625 -5.78125,0.40625 c 7.1471,-7.58581 11.11953,-20.1129 13.0625,-33.34375 2.02227,-13.77082 1.88035,-28.27105 0.75,-38.625 z M 121.5,7.59375 c 0.3816,23.33209 -0.31077,46.41243 -20.5,68.34375 l -0.75,0.84375 h 1.125 l 8.25,0.125 C 96.2195,104.79266 87.49752,132.59995 68.21875,160.375 l -0.6875,1 1.1875,-0.21875 10.1875,-1.9375 c -7.2169,18.31031 -19.55758,30.43279 -32.9375,34.5 C 42.28615,142.15012 68.02101,96.63169 89.875,51.25 c 0.0201,-0.04174 0.04241,-0.08326 0.0625,-0.125 L 89.125,50.5625 c -35.78567,40.01351 -51.9112,96.44881 -58,143 -12.12846,-6.84723 -16.17079,-15.9131 -20.28125,-28.25 l 8.46875,3.5625 0.875,0.375 L 20,168.3125 c -6.43634,-28.61973 3.55648,-49.16246 13.25,-76.15625 l 6.96875,4.65625 0.8125,0.5625 L 41,96.40625 C 40.454,74.47506 55.22103,52.45844 74.8125,32.8125 l 2.71875,7.28125 0.375,0.96875 0.53125,-0.90625 5.96875,-9.9375 0.03125,-0.0625 C 94.28937,16.58673 104.70496,12.16943 121.5,7.59375 Z"
         id="path2177"
         inkscape:connector-curvature="0" />
    </g>
  </g>
</svg>
