<svg id="Layer_1" data-name="Layer 1" xmlns="http://www.w3.org/2000/svg" viewBox="0 0 64 64">
  <defs>
    <style>
      .cls-1 {
        fill: #004e8c;
      }

      .cls-2 {
        fill: #025d9b;
      }

      .cls-3 {
        fill: #fff;
      }
    </style>
  </defs>
  <title>logo_vb</title>
  <g>
    <circle class="cls-1" cx="32" cy="32" r="31" transform="translate(-13.25 32) rotate(-45)"/>
    <path class="cls-2" d="M53.92,10.08a31,31,0,0,1,0,43.84L10.08,10.08A31,31,0,0,1,53.92,10.08Z"/>
  </g>
  <g>
    <path class="cls-3" d="M21.3,46H18.76L8.57,18h2.91l7.93,22.38q.21.63.38,1.26A11.92,11.92,0,0,1,20.05,43h.08q.1-.55.27-1.2t.45-1.42L29.11,18h2.81Z"/>
    <path class="cls-3" d="M35.13,46V18h7.66a9.82,9.82,0,0,1,3.13.47,7,7,0,0,1,2.38,1.32,5.72,5.72,0,0,1,1.51,2,6.39,6.39,0,0,1,.53,2.62A7.52,7.52,0,0,1,50,26.7a6.76,6.76,0,0,1-1,1.92,6.36,6.36,0,0,1-1.53,1.5,7.69,7.69,0,0,1-2.06,1v.08A7.65,7.65,0,0,1,48,31.9a6.45,6.45,0,0,1,2,1.43,6.23,6.23,0,0,1,1.27,2.06A7.24,7.24,0,0,1,51.71,38a8,8,0,0,1-.64,3.25,7.45,7.45,0,0,1-1.81,2.54,8.22,8.22,0,0,1-2.76,1.65A10.22,10.22,0,0,1,43,46Zm2.6-25.62v9.94h3.63a8.4,8.4,0,0,0,2.58-.37,5.65,5.65,0,0,0,2-1.07,4.72,4.72,0,0,0,1.26-1.7,5.51,5.51,0,0,0,.44-2.25q0-4.55-5.66-4.55Zm0,12.29v11h4.82a7.05,7.05,0,0,0,4.78-1.46A5.18,5.18,0,0,0,49,38.05q0-5.39-7.32-5.39Z"/>
  </g>
</svg>