<?xml version="1.0" encoding="iso-8859-1"?>
<!-- Generator: Adobe Illustrator 21.1.0, SVG Export Plug-In . SVG Version: 6.00 Build 0)  -->
<svg xmlns="http://www.w3.org/2000/svg" xmlns:xlink="http://www.w3.org/1999/xlink" version="1.1" id="Layer_1" x="0px" y="0px" viewBox="0 0 64 64" style="enable-background:new 0 0 64 64;" xml:space="preserve">
<g>
	<path style="fill:#72CAAF;" d="M57,12.92V51c0,3.31-2.69,6-6,6H12.92c-1.13-0.02-2.17-0.34-3.06-0.89   c-0.01-0.01-0.02-0.01-0.03-0.02c-0.98-0.61-1.78-1.5-2.27-2.56C7.2,52.76,7,51.91,7,51V13c0-3.31,2.69-6,6-6h38   c0.76,0,1.48,0.14,2.15,0.4c0.91,0.35,1.72,0.92,2.36,1.64c0.21,0.25,0.41,0.51,0.58,0.79C56.66,10.73,56.98,11.78,57,12.92z"/>
	<path style="fill:#84D5B5;" d="M54,14H10c-1.657,0-3-1.343-3-3v0c0-2.209,1.791-4,4-4h40c0.76,0,1.48,0.14,2.15,0.4   C54.37,7.87,57,11,57,11v0C57,12.657,55.657,14,54,14z"/>
	<polygon style="fill:#84D5B5;" points="16.502,23.996 17.74,26.26 20.004,27.498 17.74,28.736 16.502,31 15.264,28.736 13,27.498    15.264,26.26  "/>
	<polygon style="fill:#84D5B5;" points="38.419,19 39.274,20.564 40.838,21.419 39.274,22.274 38.419,23.838 37.564,22.274    36,21.419 37.564,20.564  "/>
	<polygon style="fill:#84D5B5;" points="43.648,49 44.231,50.065 45.296,50.648 44.231,51.231 43.648,52.296 43.065,51.231    42,50.648 43.065,50.065  "/>
	<path style="fill:#8D6C9F;" d="M51,6H13c-3.859,0-7,3.14-7,7v38c0,3.86,3.141,7,7,7h38c3.859,0,7-3.14,7-7V13   C58,9.14,54.859,6,51,6z M56,51c0,2.757-2.243,5-5,5H13c-2.757,0-5-2.243-5-5V13c0-2.757,2.243-5,5-5h38c2.757,0,5,2.243,5,5V51z"/>
	<path style="fill:#8D6C9F;" d="M17,16c0.553,0,1-0.448,1-1v-2c0-0.552-0.447-1-1-1s-1,0.448-1,1v2C16,15.552,16.447,16,17,16z"/>
	<path style="fill:#8D6C9F;" d="M12,12c-0.553,0-1,0.448-1,1v2c0,0.552,0.447,1,1,1s1-0.448,1-1v-2C13,12.448,12.553,12,12,12z"/>
	<path style="fill:#8D6C9F;" d="M32,16c0.553,0,1-0.448,1-1v-2c0-0.552-0.447-1-1-1s-1,0.448-1,1v2C31,15.552,31.447,16,32,16z"/>
	<path style="fill:#8D6C9F;" d="M37,12c-0.553,0-1,0.448-1,1v2c0,0.552,0.447,1,1,1s1-0.448,1-1v-2C38,12.448,37.553,12,37,12z"/>
	<path style="fill:#8D6C9F;" d="M42,16c0.553,0,1-0.448,1-1v-2c0-0.552-0.447-1-1-1s-1,0.448-1,1v2C41,15.552,41.447,16,42,16z"/>
	<path style="fill:#8D6C9F;" d="M47,16c0.553,0,1-0.448,1-1v-2c0-0.552-0.447-1-1-1s-1,0.448-1,1v2C46,15.552,46.447,16,47,16z"/>
	<path style="fill:#8D6C9F;" d="M52,12c-0.553,0-1,0.448-1,1v2c0,0.552,0.447,1,1,1s1-0.448,1-1v-2C53,12.448,52.553,12,52,12z"/>
	<path style="fill:#8D6C9F;" d="M22,12c-0.553,0-1,0.448-1,1v2c0,0.552,0.447,1,1,1s1-0.448,1-1v-2C23,12.448,22.553,12,22,12z"/>
	<path style="fill:#8D6C9F;" d="M27,16c0.553,0,1-0.448,1-1v-2c0-0.552-0.447-1-1-1s-1,0.448-1,1v2C26,15.552,26.447,16,27,16z"/>
	<path style="fill:#FFFFFF;" d="M34.381,32.805C34.764,32.301,35,31.68,35,31v-4c0-1.654-1.346-3-3-3h-4c-1.654,0-3,1.346-3,3v4   c0,0.68,0.236,1.301,0.619,1.805C24.642,33.535,24,34.689,24,36v6c0,2.206,1.794,4,4,4h4c2.206,0,4-1.794,4-4v-6   C36,34.689,35.358,33.535,34.381,32.805z M27,27c0-0.551,0.448-1,1-1h4c0.552,0,1,0.449,1,1v4c0,0.551-0.448,1-1,1h-4   c-0.552,0-1-0.449-1-1V27z M34,42c0,1.103-0.897,2-2,2h-4c-1.103,0-2-0.897-2-2v-6c0-1.103,0.897-2,2-2h4c1.103,0,2,0.897,2,2V42z"/>
	<path style="fill:#FFFFFF;" d="M48,32h-6v-4c0-1.103,0.897-2,2-2h3c1.103,0,2,0.897,2,2c0,0.552,0.447,1,1,1s1-0.448,1-1   c0-2.206-1.794-4-4-4h-3c-2.206,0-4,1.794-4,4v14c0,2.206,1.794,4,4,4h4c2.206,0,4-1.794,4-4v-6C52,33.794,50.206,32,48,32z M50,42   c0,1.103-0.897,2-2,2h-4c-1.103,0-2-0.897-2-2v-8h6c1.103,0,2,0.897,2,2V42z"/>
	<path style="fill:#FFFFFF;" d="M20.515,34.143c-0.474-0.284-1.088-0.13-1.372,0.343L17,38.056l-2.143-3.571   c-0.283-0.473-0.897-0.627-1.372-0.343c-0.474,0.284-0.627,0.898-0.343,1.372L15.834,40l-2.691,4.485   c-0.284,0.474-0.131,1.088,0.343,1.372C13.646,45.954,13.824,46,13.999,46c0.34,0,0.671-0.173,0.858-0.485L17,41.944l2.143,3.571   C19.33,45.827,19.661,46,20.001,46c0.175,0,0.353-0.046,0.514-0.143c0.474-0.284,0.627-0.898,0.343-1.372L18.166,40l2.691-4.485   C21.142,35.041,20.988,34.427,20.515,34.143z"/>
</g>
</svg>
